<svg height='300px' width='300px'  fill="#000000" xmlns="http://www.w3.org/2000/svg" xmlns:xlink="http://www.w3.org/1999/xlink" version="1.1" x="0px" y="0px" viewBox="0 0 100 100" style="enable-background:new 0 0 100 100;" xml:space="preserve"><path d="M87,62.1C87,62.1,87,62,87,62.1c0-0.1,0-0.3,0-0.4V15c0,0,0-0.1,0-0.1c0,0,0-0.1,0-0.1c0-0.2-0.1-0.3-0.1-0.5c0,0,0,0,0,0  c0,0,0,0,0,0c-0.1-0.2-0.2-0.3-0.3-0.5c0,0-0.1-0.1-0.1-0.1c-0.1-0.1-0.2-0.2-0.4-0.3c0,0,0,0,0,0c-0.1-0.1-0.3-0.2-0.5-0.2  c0,0-0.1,0-0.1,0C85.4,13,85.2,13,85,13H38.3c-0.1,0-0.3,0-0.4,0c-0.1,0-0.2,0-0.3,0.1c0,0-0.1,0-0.1,0c-0.1,0-0.2,0.1-0.3,0.1  c0,0-0.1,0-0.1,0c-0.1,0.1-0.2,0.2-0.3,0.2L13.6,36.9c-0.1,0.1-0.2,0.3-0.3,0.4c0,0,0,0.1-0.1,0.1c-0.1,0.2-0.1,0.3-0.2,0.5  c0,0,0,0,0,0c0,0.1,0,0.2,0,0.4V85c0,0,0,0.1,0,0.1c0,0,0,0.1,0,0.1c0,0.2,0.1,0.3,0.1,0.5c0,0,0,0,0,0c0,0,0,0,0,0  c0.1,0.2,0.2,0.3,0.3,0.5c0,0,0.1,0.1,0.1,0.1c0.1,0.1,0.2,0.2,0.4,0.3c0,0,0,0,0,0c0.1,0.1,0.3,0.2,0.5,0.2c0,0,0.1,0,0.1,0  c0.2,0,0.3,0.1,0.5,0.1h46.7c0.1,0,0.3,0,0.4,0c0.1,0,0.2,0,0.3-0.1c0,0,0.1,0,0.1,0c0.1,0,0.2-0.1,0.3-0.1c0,0,0.1,0,0.1,0  c0.1-0.1,0.2-0.2,0.3-0.2l23.3-23.3c0.1-0.1,0.2-0.3,0.3-0.4c0,0,0-0.1,0.1-0.1C86.9,62.4,86.9,62.2,87,62.1z M17,40.3h19.3v20.5  L17,80.2V40.3z M40.3,40.3h19.3v19.3H40.3V40.3z M63.7,39.2L83,19.8v39.8H63.7V39.2z M80.2,17L60.8,36.3H40.3V17H80.2z M36.3,19.8  v16.5H19.8L36.3,19.8z M19.8,83l19.3-19.3h20.5V83H19.8z M63.7,80.2V63.7h16.5L63.7,80.2z"></path></svg>